<svg xmlns="http://www.w3.org/2000/svg" version="1.1" xmlns:xlink="http://www.w3.org/1999/xlink" xmlns:svgjs="http://svgjs.dev/svgjs" width="2000" height="207" viewBox="0 0 2000 207"><g transform="matrix(1,0,0,1,-1.212102251229453,0.2607028313942976)"><svg viewBox="0 0 396 41" data-background-color="#ffffff" preserveAspectRatio="xMidYMid meet" height="207" width="2000" xmlns="http://www.w3.org/2000/svg" xmlns:xlink="http://www.w3.org/1999/xlink"><g id="tight-bounds" transform="matrix(1,0,0,1,0.23999624574344125,-0.05163679269162458)"><svg viewBox="0 0 395.52 41.103273585383256" height="41.103273585383256" width="395.52"><g><svg viewBox="0 0 463.25089986697265 48.14201172104359" height="41.103273585383256" width="395.52"><g><rect width="3.141458972185099" height="35.009205339832704" x="56.36572630791557" y="6.566403190605442" fill="#1ebbd7" opacity="1" stroke-width="0" stroke="transparent" fill-opacity="1" class="rect-o-0" data-fill-palette-color="primary" rx="1%" id="o-0" data-palette-color="#1ebbd7"></rect></g><g transform="matrix(1,0,0,1,67.73089986697266,6.65349076607766)"><svg viewBox="0 0 395.52 34.83503018888827" height="34.83503018888827" width="395.52"><g id="textblocktransform"><svg viewBox="0 0 395.52 34.83503018888827" height="34.83503018888827" width="395.52" id="textblock"><g><svg viewBox="0 0 395.52 34.83503018888827" height="34.83503018888827" width="395.52"><g transform="matrix(1,0,0,1,0,0)"><svg width="395.52" viewBox="1.1200000047683716 -38.09000015258789 438.989990234375 38.81999969482422" height="34.83503018888827" data-palette-color="#1ebbd7"><g class="wordmark-text-0" data-fill-palette-color="primary" id="text-0"><path d="M8.54-3.61Q6.52-5.71 5.26-8.67 4-11.62 3.71-14.26 3.42-16.89 2.82-17.91 2.22-18.92 1.12-19.46L1.12-19.46Q3.25-20.46 3.63-23.57 4-26.68 5.35-29.39 6.69-32.1 8.76-34.03L8.76-34.03Q13.13-38.09 19.29-38.09L19.29-38.09Q25.61-38.09 29.76-34.33L29.76-34.33Q34.08-30.42 34.84-23.39L34.84-23.39Q35.16-20.46 37.33-19.46L37.33-19.46Q35.21-18.41 34.81-15.01 34.42-11.62 33.28-8.67 32.13-5.71 30.2-3.61L30.2-3.61Q26.17 0.73 19.31 0.73L19.31 0.73Q12.74 0.73 8.54-3.61L8.54-3.61ZM16.53-19.46L16.53-19.46Q13.84-18.16 13.84-15.23L13.84-15.23 13.84-7.98Q13.84-4 17.14-2.88L17.14-2.88Q18.12-2.54 19.26-2.54 20.41-2.54 21.37-2.88 22.34-3.22 23.05-3.91L23.05-3.91Q24.51-5.32 24.51-7.98L24.51-7.98 24.51-15.23Q24.51-18.16 21.88-19.46L21.88-19.46Q24.51-20.68 24.51-23.39L24.51-23.39 24.51-29.22Q24.51-31.93 22.92-33.45L22.92-33.45Q21.44-34.84 19.24-34.84L19.24-34.84Q15.5-34.84 14.26-31.71L14.26-31.71Q13.84-30.66 13.84-29.22L13.84-29.22 13.84-23.39Q13.84-20.63 16.53-19.46ZM26.76-30.52L26.76-30.52Q27.44-28.47 27.44-23.46L27.44-23.46Q27.44-20.63 27.2-20.36 26.95-20.09 26.71-19.92L26.71-19.92Q26.27-19.63 25.76-19.46L25.76-19.46Q27.22-18.8 27.29-18.19L27.29-18.19Q27.54-15.8 27.54-14.05 27.54-12.3 27.49-11.24 27.44-10.18 27.34-9.28L27.34-9.28Q27.15-7.35 26.86-6.47L26.86-6.47Q28.76-7.06 28.98-12.11L28.98-12.11Q29.1-14.94 29.1-18.42 29.1-21.9 29.03-23.65 28.96-25.39 28.81-26.51L28.81-26.51Q28.52-29.1 27.59-30.1L27.59-30.1Q27.32-30.4 26.76-30.52ZM9.16-6.47L9.16-6.47Q9.52-6.62 9.52-6.98L9.52-6.98Q9.52-7.52 9.01-8.67L9.01-8.67Q7.71-11.62 7.71-19.46L7.71-19.46Q7.71-25.17 9.08-29.17L9.08-29.17Q9.25-29.79 9.25-30.1 9.25-30.42 8.94-30.52L8.94-30.52Q7.79-29.08 7.3-27.66L7.3-27.66Q6.4-25.07 5.86-20.65L5.86-20.65Q5.79-20.02 4.42-19.46L4.42-19.46Q5.79-18.85 5.86-18.21L5.86-18.21Q6.74-10.64 8.11-8.11L8.11-8.11Q8.57-7.2 9.16-6.47ZM44.68-0.17L44.68-0.17Q43.77 0.49 42.61 0.49 41.45 0.49 40.76-0.11 40.06-0.71 40.06-1.49 40.06-2.27 40.31-2.64L40.31-2.64Q41.01-2.22 42.55-2.22L42.55-2.22Q43.16-2.22 43.89-2.84 44.63-3.47 45.07-4.57L45.07-4.57 45.07-16.02Q45.07-17.16 44.58-17.72L44.58-17.72Q43.85-18.6 42.09-19.46L42.09-19.46Q43.87-20.31 44.33-20.87L44.33-20.87Q45.07-21.8 45.07-22.95L45.07-22.95 45.09-33.59Q44.5-35.13 42.5-35.13L42.5-35.13Q41.48-35.13 40.99-34.72L40.99-34.72Q40.74-35.03 40.74-35.55 40.74-36.06 40.96-36.47 41.18-36.89 41.57-37.21L41.57-37.21Q42.4-37.84 43.8-37.84 45.19-37.84 46.09-37.04L46.09-37.04Q46.9-37.84 47.97-37.84 49.05-37.84 49.8-36.94L49.8-36.94Q50.75-37.84 51.49-37.84 52.22-37.84 52.61-37.72 53-37.6 53.39-37.26L53.39-37.26Q54.17-36.65 55.03-34.79L55.03-34.79 64.38-15.38 72.09-34.4 72.78-35.99Q73.39-37.33 73.92-37.59 74.46-37.84 75.18-37.84 75.9-37.84 76.66-37.3L76.66-37.3Q77.59-37.84 79.09-37.84 80.59-37.84 81.69-37.04L81.69-37.04Q82.66-37.84 83.73-37.84 84.79-37.84 85.39-37.67 85.98-37.5 86.42-37.21L86.42-37.21Q87.35-36.55 87.35-35.57L87.35-35.57Q87.35-35.08 87.08-34.72L87.08-34.72Q86.55-35.13 85.72-35.13L85.72-35.13Q83.86-35.13 83.2-33.4L83.2-33.4 83.2-22.95Q83.2-21.75 83.71-21.17L83.71-21.17Q84.52-20.21 86.18-19.46L86.18-19.46Q84.4-18.58 83.91-18.02L83.91-18.02Q83.2-17.14 83.2-16.02L83.2-16.02 83.2-4.08Q84.03-2.22 86.2-2.22L86.2-2.22Q87.03-2.22 87.57-2.64L87.57-2.64Q87.84-2.27 87.84-1.79 87.84-1.32 87.56-0.9 87.28-0.49 86.79-0.2L86.79-0.2Q85.67 0.49 84.23 0.49 82.79 0.49 81.54-0.29L81.54-0.29Q80.39 0.49 78.93 0.49L78.93 0.49Q77.37 0.49 76.17-0.29L76.17-0.29Q74.92 0.49 73.86 0.49 72.8 0.49 72.12 0.31 71.43 0.12 70.92-0.2L70.92-0.2Q69.87-0.83 69.87-1.78L69.87-1.78Q69.87-2.27 70.14-2.64L70.14-2.64Q70.68-2.22 71.51-2.22L71.51-2.22Q73.68-2.22 74.51-4.08L74.51-4.08 74.51-30.76 64.99-7.18 63.94-4.79Q63.18-3.08 62.88-2.86 62.57-2.64 62.38-2.64L62.38-2.64Q61.77-2.64 61.52-2.76L61.52-2.76 48.48-28.47 48.48-4.59Q48.95-3.47 49.75-2.84 50.56-2.22 51.56-2.22 52.56-2.22 53.27-2.64L53.27-2.64Q53.54-2.2 53.54-1.43 53.54-0.66 52.78-0.09 52.02 0.49 50.83 0.49 49.63 0.49 48.63-0.12L48.63-0.12Q47.75 0.49 46.62 0.49 45.48 0.49 44.68-0.17ZM60.37-13.65L51.93-30.54Q51.68-30.18 51.68-29.49L51.68-29.49Q51.68-27.51 53.34-24.24L53.34-24.24 62.23-6.49Q62.4-6.71 62.4-7.42L62.4-7.42Q62.4-9.55 60.37-13.65L60.37-13.65ZM76.85-30.52L76.85-6.47Q78.07-6.93 78.2-9.67L78.2-9.67Q78.34-12.4 78.34-17.24 78.34-22.07 78.33-23.67 78.32-25.27 78.29-26.25L78.29-26.25Q78.22-29.13 77.74-29.72 77.27-30.32 76.85-30.52L76.85-30.52ZM48.17-5.86L48.14-6.15Q48.14-5.96 48.17-5.86L48.17-5.86ZM45.38-5.86L45.41-6.15Q45.38-6.05 45.38-5.86L45.38-5.86Z" fill="#1ebbd7" data-fill-palette-color="primary"></path><path d="M111.03 0.49L111.03 0.49Q109.42 0.49 108.17-0.29L108.17-0.29Q106.93 0.49 105.87 0.49 104.81 0.49 104.12 0.31 103.44 0.12 102.93-0.2L102.93-0.2Q101.88-0.83 101.88-1.78L101.88-1.78Q101.88-2.27 102.14-2.64L102.14-2.64Q102.68-2.22 103.51-2.22L103.51-2.22Q105.68-2.22 106.51-4.08L106.51-4.08 106.51-16.02Q106.51-17.14 106.05-17.68L106.05-17.68Q105.32-18.58 103.54-19.46L103.54-19.46Q105.2-20.21 105.68-20.8L105.68-20.8Q106.51-21.75 106.51-22.95L106.51-22.95 106.51-33.25Q105.68-35.13 103.51-35.13L103.51-35.13Q102.68-35.13 102.14-34.72L102.14-34.72Q101.88-35.08 101.88-35.56 101.88-36.04 102.16-36.45 102.44-36.87 102.93-37.16L102.93-37.16Q104.05-37.84 105.5-37.84 106.95-37.84 108.17-37.04L108.17-37.04Q109.44-37.84 110.87-37.84 112.3-37.84 113.52-37.23L113.52-37.23Q116.4-38.09 118.87-38.09 121.33-38.09 123.24-37.82 125.14-37.55 126.88-36.88 128.61-36.21 130.13-35.08 131.66-33.96 132.86-32.28L132.86-32.28Q135.4-28.74 136.1-22.9L136.1-22.9Q136.25-21.46 136.71-20.87L136.71-20.87Q137.5-19.92 138.84-19.46L138.84-19.46Q137.42-18.92 136.98-18.36L136.98-18.36Q136.25-17.43 136.1-16.02L136.1-16.02Q135.3-7.91 130.66-3.52L130.66-3.52Q126.19 0.73 119.06 0.73L119.06 0.73Q116.21 0.73 113.94-0.15L113.94-0.15Q112.84 0.49 111.03 0.49ZM115.5-34.25L115.5-3.83Q116.67-2.51 118.61-2.51 120.55-2.51 121.98-3.28 123.41-4.05 124.39-5.66L124.39-5.66Q126.36-8.96 126.36-16.02L126.36-16.02Q126.36-17.55 125.87-18.12L125.87-18.12Q125.22-18.9 123.7-19.46L123.7-19.46Q125.19-19.97 125.63-20.48L125.63-20.48Q126.36-21.36 126.36-22.72 126.36-24.07 126.17-25.42 125.97-26.76 125.55-28.08 125.12-29.39 124.47-30.6 123.82-31.81 122.92-32.74L122.92-32.74Q120.94-34.77 118.26-34.77L118.26-34.77Q117.43-34.77 116.65-34.73 115.86-34.69 115.5-34.25L115.5-34.25ZM127.63-30.52L127.63-30.52Q129.46-25.42 129.46-21.78L129.46-21.78Q129.46-20.53 129.26-20.31 129.05-20.09 128.8-19.92L128.8-19.92Q128.36-19.63 127.85-19.46L127.85-19.46Q129.32-18.8 129.39-18.19L129.39-18.19Q129.44-17.92 129.44-17.65L129.44-17.65 129.44-17.04Q129.44-13.75 128.76-10.66 128.07-7.57 127.73-6.47L127.73-6.47Q128.83-6.79 129.33-7.92 129.83-9.06 130.18-10.36 130.54-11.67 130.76-13.13L130.76-13.13Q131.25-16.14 131.25-19.41L131.25-19.41Q131.25-25.27 129.51-28.86L129.51-28.86Q128.76-30.27 127.63-30.52ZM108.86-9.64L108.86-6.47Q110.08-6.93 110.2-9.67L110.2-9.67Q110.35-12.4 110.35-17.24 110.35-22.07 110.34-23.67 110.32-25.27 110.3-26.25L110.3-26.25Q110.23-29.13 109.75-29.72 109.27-30.32 108.86-30.52L108.86-30.52Q108.86-22.02 108.57-20.85L108.57-20.85Q108.22-19.87 106.9-19.46L106.9-19.46Q108.37-18.95 108.57-18.21L108.57-18.21Q108.86-17.04 108.86-9.64L108.86-9.64ZM152.43-0.27L152.43-0.27Q151.21 0.49 149.68 0.49 148.14 0.49 147.04-0.29L147.04-0.29Q145.79 0.49 144.74 0.49 143.69 0.49 143.01 0.31 142.33 0.12 141.84-0.2L141.84-0.2Q140.76-0.83 140.76-1.78L140.76-1.78Q140.76-2.27 141.03-2.64L141.03-2.64Q141.57-2.22 142.4-2.22L142.4-2.22Q144.57-2.22 145.4-4.08L145.4-4.08 145.4-16.02Q145.4-17.92 143.5-18.9L143.5-18.9 142.42-19.46Q144.6-20.46 145.16-21.63L145.16-21.63Q145.4-22.17 145.4-22.95L145.4-22.95 145.4-33.25Q144.57-35.13 142.4-35.13L142.4-35.13Q141.57-35.13 141.03-34.72L141.03-34.72Q140.76-35.08 140.76-35.56 140.76-36.04 141.05-36.45 141.33-36.87 141.84-37.16L141.84-37.16Q142.94-37.84 144.37-37.84 145.79-37.84 147.04-37.06L147.04-37.06Q148.14-37.84 149.69-37.84 151.24-37.84 152.43-37.06L152.43-37.06Q153.58-37.84 155-37.84L155-37.84Q157.07-37.84 157.95-36.45L157.95-36.45Q158.25-36.01 158.25-35.52 158.25-35.03 157.95-34.72L157.95-34.72Q157.42-35.13 156.61-35.13L156.61-35.13Q154.73-35.13 154.09-33.3L154.09-33.3 154.09-20.41 165.64-20.41 165.64-33.3Q165.01-35.13 163.13-35.13L163.13-35.13Q162.32-35.13 161.79-34.72L161.79-34.72Q161.49-35.03 161.49-35.52 161.49-36.01 161.77-36.45 162.05-36.89 162.49-37.21L162.49-37.21Q163.42-37.84 164.74-37.84L164.74-37.84Q166.16-37.84 167.3-37.06L167.3-37.06Q168.55-37.84 170.07-37.84 171.6-37.84 172.7-37.06L172.7-37.06Q173.89-37.84 174.97-37.84 176.04-37.84 176.73-37.66 177.41-37.48 177.92-37.16L177.92-37.16Q178.97-36.52 178.97-35.57L178.97-35.57Q178.97-35.08 178.7-34.72L178.7-34.72Q178.17-35.13 177.34-35.13L177.34-35.13Q175.16-35.13 174.33-33.25L174.33-33.25 174.33-22.95Q174.33-21.04 176.21-20L176.21-20Q176.75-19.7 177.31-19.46L177.31-19.46Q175.85-18.75 175.34-18.31L175.34-18.31Q174.33-17.38 174.33-16.02L174.33-16.02 174.33-4.08Q175.16-2.22 177.34-2.22L177.34-2.22Q178.17-2.22 178.7-2.64L178.7-2.64Q178.97-2.27 178.97-1.79 178.97-1.32 178.69-0.9 178.41-0.49 177.92-0.2L177.92-0.2Q176.8 0.49 175.35 0.49 173.89 0.49 172.7-0.29L172.7-0.29Q171.6 0.49 170.07 0.49 168.55 0.49 167.3-0.29L167.3-0.29Q166.16 0.49 164.74 0.49L164.74 0.49Q162.66 0.49 161.76-0.9L161.76-0.9Q161.49-1.34 161.49-1.83 161.49-2.32 161.79-2.64L161.79-2.64Q162.32-2.22 163.13-2.22L163.13-2.22Q165.01-2.22 165.64-4.05L165.64-4.05 165.64-16.92 154.09-16.92 154.09-4.05Q154.73-2.22 156.61-2.22L156.61-2.22Q157.42-2.22 157.95-2.64L157.95-2.64Q158.25-2.32 158.25-1.83 158.25-1.34 157.96-0.9 157.68-0.46 157.22-0.15L157.22-0.15Q156.34 0.49 155 0.49L155 0.49Q153.61 0.49 152.43-0.27ZM167.67-24.69Q167.64-22.07 167.64-16.02 167.64-9.96 167.82-8.89L167.82-8.89Q168.13-6.84 169.09-6.47L169.09-6.47 169.09-9.64Q169.09-16.14 169.18-16.98 169.28-17.82 169.38-18.16L169.38-18.16Q169.6-19.02 170.87-19.46L170.87-19.46Q169.74-19.8 169.38-20.85L169.38-20.85Q169.09-22.02 169.09-30.52L169.09-30.52Q168.13-30.08 167.91-28.76L167.91-28.76Q167.69-27.32 167.67-24.69ZM147.75-9.64L147.75-6.47Q148.92-6.93 149.07-9.67L149.07-9.67Q149.19-12.4 149.19-17.24 149.19-22.07 149.18-23.67 149.16-25.27 149.14-26.25L149.14-26.25Q149.07-29.1 148.61-29.71 148.16-30.32 147.75-30.52L147.75-30.52Q147.75-22.02 147.45-20.85L147.45-20.85Q147.11-19.87 145.79-19.46L145.79-19.46Q147.26-18.95 147.45-18.21L147.45-18.21Q147.75-17.04 147.75-9.64L147.75-9.64ZM183.78-0.17L183.78-0.17Q182.88 0.49 181.72 0.49 180.56 0.49 179.86-0.11 179.17-0.71 179.17-1.49 179.17-2.27 179.41-2.64L179.41-2.64Q180.12-2.22 181.16-2.22 182.19-2.22 182.72-2.5 183.24-2.78 183.73-3.27L183.73-3.27 187.2-13.55 187.69-15.23Q187.91-15.99 187.91-16.63L187.91-16.63Q187.91-18.85 185.81-19.46L185.81-19.46Q187.73-20.19 188.52-21.04L188.52-21.04Q189.74-22.39 190.44-24.58L190.44-24.58 193.13-33.59Q192.35-34.64 191.27-34.64 190.2-34.64 189.27-34.18L189.27-34.18Q189.03-34.62 189.03-35.17 189.03-35.72 189.26-36.21 189.49-36.69 189.91-37.06L189.91-37.06Q190.84-37.84 192.54-37.84 194.25-37.84 195.45-36.82L195.45-36.82Q196.67-37.84 198.49-37.84 200.31-37.84 201.38-36.87L201.38-36.87Q202.94-37.84 204.56-37.84 206.17-37.84 207.06-37.23 207.95-36.62 207.95-35.57L207.95-35.57Q207.95-35.08 207.66-34.72L207.66-34.72Q207.1-35.13 206.34-35.13L206.34-35.13Q204.7-35.13 204.21-32.91L204.21-32.91 207.34-22.92Q207.93-21.04 210.27-20L210.27-20Q210.93-19.7 211.61-19.46L211.61-19.46Q209.17-18.65 209.17-17.04L209.17-17.04Q209.17-16.43 209.37-15.97L209.37-15.97 214.03-3.47Q215.1-2.34 216.2-2.34 217.3-2.34 217.91-2.76L217.91-2.76Q218.18-2.56 218.18-2.03 218.18-1.49 218.01-1.04 217.84-0.59 217.47-0.24L217.47-0.24Q216.69 0.49 215.18 0.49 213.66 0.49 212.54-0.34L212.54-0.34Q211.27 0.49 209.67 0.49 208.07 0.49 206.92-0.32L206.92-0.32Q205.83 0.49 204.34 0.49 202.85 0.49 201.87-0.13 200.89-0.76 200.85-1.9L200.85-1.9Q200.85-2.59 201.11-2.76L201.11-2.76Q201.77-2.34 202.46-2.34L202.46-2.34Q203.9-2.34 204.48-2.93L204.48-2.93 202.63-9.16 189.42-9.16 187.81-3.76Q188.81-2.22 190.24-2.22 191.67-2.22 192.37-2.64L192.37-2.64Q192.64-2.2 192.64-1.43 192.64-0.66 191.89-0.09 191.13 0.49 189.93 0.49 188.74 0.49 187.73-0.12L187.73-0.12Q186.86 0.49 185.72 0.49 184.59 0.49 183.78-0.17ZM190.4-12.45L201.63-12.45 195.96-31.27 190.4-12.45ZM205.02-10.03L206.29-6.47Q206.73-6.47 206.73-7.45L206.73-7.45Q206.73-9.16 206.22-10.77L206.22-10.77 205.29-13.62Q204.31-16.85 204.31-17.68L204.31-17.68Q204.29-19.04 205.51-19.48L205.51-19.48Q203.82-19.82 203.46-20.53L203.46-20.53Q203.29-20.83 203.18-21 203.07-21.17 202.96-21.4 202.85-21.63 202.7-22 202.55-22.36 202.31-23.05L202.31-23.05 200.8-27.61Q200.26-29.32 199.21-30.2L199.21-30.2Q198.89-30.47 198.62-30.52L198.62-30.52Q200.26-24.61 200.77-22.95L200.77-22.95Q204.31-12.06 205.02-10.03L205.02-10.03ZM213.54-4.13L213.49-4.27 213.54-4.13ZM230.26-0.32L230.26-0.32Q228.99 0.49 227.42 0.49 225.84 0.49 224.6-0.29L224.6-0.29Q223.35 0.49 222.29 0.49 221.23 0.49 220.54 0.31 219.86 0.12 219.35-0.2L219.35-0.2Q218.3-0.83 218.3-1.78L218.3-1.78Q218.3-2.27 218.57-2.64L218.57-2.64Q219.1-2.22 219.93-2.22L219.93-2.22Q222.11-2.22 222.94-4.08L222.94-4.08 222.94-16.02Q222.94-17.14 222.47-17.68L222.47-17.68Q221.74-18.58 219.96-19.46L219.96-19.46Q221.62-20.21 222.11-20.8L222.11-20.8Q222.94-21.75 222.94-22.95L222.94-22.95 222.94-33.25Q222.11-35.13 219.93-35.13L219.93-35.13Q219.1-35.13 218.57-34.72L218.57-34.72Q218.3-35.08 218.3-35.56 218.3-36.04 218.58-36.45 218.86-36.87 219.35-37.16L219.35-37.16Q220.47-37.84 221.92-37.84 223.38-37.84 224.6-37.04L224.6-37.04Q225.87-37.84 227.42-37.84 228.97-37.84 230.21-37.06L230.21-37.06Q232.63-38.09 235.67-38.09 238.71-38.09 240.93-37.38 243.15-36.67 244.93-35.4L244.93-35.4Q248.65-32.76 249.84-28.44L249.84-28.44Q250.33-26.76 252.16-25.68L252.16-25.68Q250.28-24.63 249.65-22.51 249.01-20.39 247.53-18.57 246.06-16.75 244.15-15.53L244.15-15.53Q240.27-13.04 235.9-13.04L235.9-13.04Q234-13.04 231.92-13.53L231.92-13.53 231.92-4.2Q232.58-2.78 234.63-2.34L234.63-2.34Q235.17-2.22 235.83-2.22 236.49-2.22 237.02-2.64L237.02-2.64Q237.29-2.27 237.29-1.79 237.29-1.32 236.94-0.9 236.58-0.49 236-0.2L236-0.2Q234.71 0.49 233.17 0.49 231.63 0.49 230.26-0.32ZM231.92-31.03L231.92-19.9Q231.92-18.24 233.14-17.24L233.14-17.24Q234.27-16.31 236.02-16.31L236.02-16.31Q238.71-16.31 239.91-18.36L239.91-18.36Q240.32-19.07 240.32-20.09L240.32-20.09 240.32-31.13Q240.32-32.89 238.98-33.89L238.98-33.89Q237.76-34.81 236.55-34.81 235.34-34.81 234.57-34.58 233.8-34.35 233.22-33.89L233.22-33.89Q231.92-32.86 231.92-31.03L231.92-31.03ZM241.91-17.38L241.91-17.38Q242.47-17.48 243.07-18.75 243.66-20.02 243.97-21.74 244.28-23.46 244.74-24.28 245.2-25.1 246.23-25.44L246.23-25.44Q244.54-26 244.1-28.43 243.66-30.86 243.07-32.01 242.47-33.15 241.91-33.25L241.91-33.25Q242.81-31.23 242.81-25.44L242.81-25.44Q242.81-21.58 242.42-19.63 242.03-17.68 241.91-17.38ZM225.28-9.64L225.28-6.47Q226.5-6.93 226.62-9.67L226.62-9.67Q226.77-12.4 226.77-17.24 226.77-22.07 226.76-23.67 226.75-25.27 226.72-26.25L226.72-26.25Q226.65-29.13 226.17-29.72 225.7-30.32 225.28-30.52L225.28-30.52Q225.28-22.02 224.99-20.85L224.99-20.85Q224.65-19.87 223.33-19.46L223.33-19.46Q224.79-18.95 224.99-18.21L224.99-18.21Q225.28-17.04 225.28-9.64L225.28-9.64ZM259.78-3.61Q257.75-5.71 256.49-8.67 255.23-11.62 254.94-14.26 254.65-16.89 254.05-17.91 253.45-18.92 252.35-19.46L252.35-19.46Q254.48-20.46 254.86-23.57 255.23-26.68 256.58-29.39 257.92-32.1 260-34.03L260-34.03Q264.37-38.09 270.52-38.09L270.52-38.09Q276.84-38.09 280.99-34.33L280.99-34.33Q285.31-30.42 286.07-23.39L286.07-23.39Q286.39-20.46 288.56-19.46L288.56-19.46Q286.44-18.41 286.05-15.01 285.65-11.62 284.51-8.67 283.36-5.71 281.43-3.61L281.43-3.61Q277.4 0.73 270.54 0.73L270.54 0.73Q263.97 0.73 259.78-3.61L259.78-3.61ZM267.76-19.46L267.76-19.46Q265.07-18.16 265.07-15.23L265.07-15.23 265.07-7.98Q265.07-4 268.37-2.88L268.37-2.88Q269.35-2.54 270.49-2.54 271.64-2.54 272.61-2.88 273.57-3.22 274.28-3.91L274.28-3.91Q275.74-5.32 275.74-7.98L275.74-7.98 275.74-15.23Q275.74-18.16 273.11-19.46L273.11-19.46Q275.74-20.68 275.74-23.39L275.74-23.39 275.74-29.22Q275.74-31.93 274.16-33.45L274.16-33.45Q272.67-34.84 270.47-34.84L270.47-34.84Q266.73-34.84 265.49-31.71L265.49-31.71Q265.07-30.66 265.07-29.22L265.07-29.22 265.07-23.39Q265.07-20.63 267.76-19.46ZM277.99-30.52L277.99-30.52Q278.67-28.47 278.67-23.46L278.67-23.46Q278.67-20.63 278.43-20.36 278.18-20.09 277.94-19.92L277.94-19.92Q277.5-19.63 276.99-19.46L276.99-19.46Q278.45-18.8 278.53-18.19L278.53-18.19Q278.77-15.8 278.77-14.05 278.77-12.3 278.72-11.24 278.67-10.18 278.57-9.28L278.57-9.28Q278.38-7.35 278.09-6.47L278.09-6.47Q279.99-7.06 280.21-12.11L280.21-12.11Q280.33-14.94 280.33-18.42 280.33-21.9 280.26-23.65 280.19-25.39 280.04-26.51L280.04-26.51Q279.75-29.1 278.82-30.1L278.82-30.1Q278.55-30.4 277.99-30.52ZM260.39-6.47L260.39-6.47Q260.75-6.62 260.75-6.98L260.75-6.98Q260.75-7.52 260.24-8.67L260.24-8.67Q258.95-11.62 258.95-19.46L258.95-19.46Q258.95-25.17 260.31-29.17L260.31-29.17Q260.48-29.79 260.48-30.1 260.48-30.42 260.17-30.52L260.17-30.52Q259.02-29.08 258.53-27.66L258.53-27.66Q257.63-25.07 257.09-20.65L257.09-20.65Q257.02-20.02 255.65-19.46L255.65-19.46Q257.02-18.85 257.09-18.21L257.09-18.21Q257.97-10.64 259.34-8.11L259.34-8.11Q259.8-7.2 260.39-6.47ZM300.67 0.49L300.67 0.49Q299.06 0.49 297.81-0.29L297.81-0.29Q296.57 0.49 295.5 0.49 294.44 0.49 293.76 0.31 293.07 0.12 292.56-0.2L292.56-0.2Q291.51-0.83 291.51-1.78L291.51-1.78Q291.51-2.27 291.78-2.64L291.78-2.64Q292.32-2.22 293.15-2.22L293.15-2.22Q295.32-2.22 296.15-4.08L296.15-4.08 296.15-16.02Q296.15-17.14 295.69-17.68L295.69-17.68Q294.95-18.58 293.17-19.46L293.17-19.46Q294.83-20.21 295.32-20.8L295.32-20.8Q296.15-21.75 296.15-22.95L296.15-22.95 296.15-33.25Q295.32-35.13 293.15-35.13L293.15-35.13Q292.32-35.13 291.78-34.72L291.78-34.72Q291.51-35.08 291.51-35.56 291.51-36.04 291.79-36.45 292.07-36.87 292.56-37.16L292.56-37.16Q293.68-37.84 295.14-37.84 296.59-37.84 297.81-37.04L297.81-37.04Q299.08-37.84 300.51-37.84 301.94-37.84 303.16-37.23L303.16-37.23Q306.04-38.09 308.5-38.09 310.97-38.09 312.87-37.82 314.78-37.55 316.51-36.88 318.24-36.21 319.77-35.08 321.3-33.96 322.49-32.28L322.49-32.28Q325.03-28.74 325.74-22.9L325.74-22.9Q325.89-21.46 326.35-20.87L326.35-20.87Q327.13-19.92 328.47-19.46L328.47-19.46Q327.06-18.92 326.62-18.36L326.62-18.36Q325.89-17.43 325.74-16.02L325.74-16.02Q324.93-7.91 320.3-3.52L320.3-3.52Q315.83 0.73 308.7 0.73L308.7 0.73Q305.84 0.73 303.57-0.15L303.57-0.15Q302.47 0.49 300.67 0.49ZM305.13-34.25L305.13-3.83Q306.31-2.51 308.25-2.51 310.19-2.51 311.62-3.28 313.04-4.05 314.02-5.66L314.02-5.66Q316-8.96 316-16.02L316-16.02Q316-17.55 315.51-18.12L315.51-18.12Q314.85-18.9 313.34-19.46L313.34-19.46Q314.83-19.97 315.27-20.48L315.27-20.48Q316-21.36 316-22.72 316-24.07 315.8-25.42 315.61-26.76 315.18-28.08 314.75-29.39 314.11-30.6 313.46-31.81 312.56-32.74L312.56-32.74Q310.58-34.77 307.89-34.77L307.89-34.77Q307.06-34.77 306.28-34.73 305.5-34.69 305.13-34.25L305.13-34.25ZM317.27-30.52L317.27-30.52Q319.1-25.42 319.1-21.78L319.1-21.78Q319.1-20.53 318.89-20.31 318.68-20.09 318.44-19.92L318.44-19.92Q318-19.63 317.49-19.46L317.49-19.46Q318.95-18.8 319.03-18.19L319.03-18.19Q319.08-17.92 319.08-17.65L319.08-17.65 319.08-17.04Q319.08-13.75 318.39-10.66 317.71-7.57 317.37-6.47L317.37-6.47Q318.46-6.79 318.97-7.92 319.47-9.06 319.82-10.36 320.17-11.67 320.39-13.13L320.39-13.13Q320.88-16.14 320.88-19.41L320.88-19.41Q320.88-25.27 319.15-28.86L319.15-28.86Q318.39-30.27 317.27-30.52ZM298.49-9.64L298.49-6.47Q299.71-6.93 299.84-9.67L299.84-9.67Q299.98-12.4 299.98-17.24 299.98-22.07 299.97-23.67 299.96-25.27 299.93-26.25L299.93-26.25Q299.86-29.13 299.39-29.72 298.91-30.32 298.49-30.52L298.49-30.52Q298.49-22.02 298.2-20.85L298.2-20.85Q297.86-19.87 296.54-19.46L296.54-19.46Q298.01-18.95 298.2-18.21L298.2-18.21Q298.49-17.04 298.49-9.64L298.49-9.64ZM342-0.27L342-0.27Q340.78 0.49 339.24 0.49 337.7 0.49 336.6-0.29L336.6-0.29Q335.36 0.49 334.31 0.49 333.26 0.49 332.57 0.31 331.89 0.12 331.38-0.2L331.38-0.2Q330.33-0.83 330.33-1.78L330.33-1.78Q330.33-2.27 330.6-2.64L330.6-2.64Q331.13-2.22 331.96-2.22L331.96-2.22Q334.14-2.22 334.97-4.08L334.97-4.08 334.97-16.02Q334.97-17.92 333.06-18.9L333.06-18.9 331.99-19.46Q334.16-20.46 334.7-21.63L334.7-21.63Q334.97-22.17 334.97-22.95L334.97-22.95 334.97-33.25Q334.14-35.13 331.96-35.13L331.96-35.13Q331.13-35.13 330.6-34.72L330.6-34.72Q330.33-35.08 330.33-35.56 330.33-36.04 330.61-36.45 330.89-36.87 331.38-37.16L331.38-37.16Q332.5-37.84 333.93-37.84 335.36-37.84 336.6-37.06L336.6-37.06Q337.7-37.84 339.25-37.84 340.8-37.84 342-37.06L342-37.06Q343.14-37.84 344.56-37.84L344.56-37.84Q346.64-37.84 347.54-36.45L347.54-36.45Q347.81-36.01 347.81-35.52 347.81-35.03 347.51-34.72L347.51-34.72Q346.98-35.13 346.17-35.13L346.17-35.13Q344.29-35.13 343.66-33.3L343.66-33.3 343.66-20.75 354.89-34.06Q354.89-35.16 353.67-35.16 352.45-35.16 351.64-34.69L351.64-34.69Q351.37-35.13 351.37-35.83 351.37-36.52 352.1-37.18 352.84-37.84 354.14-37.84 355.45-37.84 356.3-37.21L356.3-37.21Q357.16-37.84 358.21-37.84 359.26-37.84 360.09-37.18L360.09-37.18Q360.92-37.84 361.77-37.84 362.63-37.84 363.13-37.68 363.63-37.52 363.99-37.26L363.99-37.26Q364.85-36.62 364.85-35.84 364.85-35.06 364.6-34.69L364.6-34.69Q364.09-34.86 363.43-34.86L363.43-34.86Q362.09-34.86 361.47-34.59 360.84-34.33 360.27-33.98 359.7-33.64 359.11-33.2L359.11-33.2 357.99-32.37Q357.43-31.93 357.09-31.57L357.09-31.57 351.49-25 361.77-6.3Q363.68-2.88 364.82-2.39L364.82-2.39Q365.24-2.22 365.9-2.22 366.56-2.22 367.09-2.64L367.09-2.64Q367.36-2.27 367.36-1.79 367.36-1.32 367.09-0.9 366.83-0.49 366.39-0.2L366.39-0.2Q365.39 0.49 363.85 0.49 362.31 0.49 361.06-0.29L361.06-0.29Q359.82 0.49 358.23 0.49 356.65 0.49 355.4-0.29L355.4-0.29Q354.16 0.49 352.68 0.49 351.2 0.49 350.38-0.18 349.57-0.85 349.57-1.78L349.57-1.78Q349.57-2.27 349.83-2.64L349.83-2.64Q350.37-2.22 351.2-2.22L351.2-2.22Q352.74-2.22 353.47-3.42L353.47-3.42 345.93-18.51 343.66-15.84 343.66-4.05Q344.29-2.22 346.17-2.22L346.17-2.22Q346.98-2.22 347.51-2.64L347.51-2.64Q347.81-2.32 347.81-1.83 347.81-1.34 347.53-0.9 347.25-0.46 346.81-0.15L346.81-0.15Q345.88 0.49 344.56 0.49L344.56 0.49Q343.17 0.49 342-0.27ZM337.26-9.64L337.26-6.47Q338.48-6.93 338.6-9.67L338.6-9.67Q338.75-12.4 338.75-17.24 338.75-22.07 338.74-23.67 338.73-25.27 338.7-26.25L338.7-26.25Q338.63-29.13 338.15-29.72 337.68-30.32 337.26-30.52L337.26-30.52Q337.26-22.02 336.97-20.85L336.97-20.85Q336.63-19.87 335.31-19.46L335.31-19.46Q336.77-18.95 336.97-18.21L336.97-18.21Q337.26-17.04 337.26-9.64L337.26-9.64ZM347.76-20.02L354.47-6.47Q354.77-6.86 354.77-7.62L354.77-7.62Q354.77-9.28 353.62-11.4L353.62-11.4 348.86-21.17 347.76-20.02ZM369.02-0.17L369.02-0.17Q368.12 0.49 366.96 0.49 365.8 0.49 365.1-0.11 364.41-0.71 364.41-1.49 364.41-2.27 364.65-2.64L364.65-2.64Q365.36-2.22 366.4-2.22 367.43-2.22 367.96-2.5 368.48-2.78 368.97-3.27L368.97-3.27 372.44-13.55 372.93-15.23Q373.15-15.99 373.15-16.63L373.15-16.63Q373.15-18.85 371.05-19.46L371.05-19.46Q372.98-20.19 373.76-21.04L373.76-21.04Q374.98-22.39 375.69-24.58L375.69-24.58 378.37-33.59Q377.59-34.64 376.52-34.64 375.44-34.64 374.51-34.18L374.51-34.18Q374.27-34.62 374.27-35.17 374.27-35.72 374.5-36.21 374.73-36.69 375.15-37.06L375.15-37.06Q376.08-37.84 377.79-37.84 379.49-37.84 380.69-36.82L380.69-36.82Q381.91-37.84 383.73-37.84 385.55-37.84 386.62-36.87L386.62-36.87Q388.19-37.84 389.8-37.84 391.41-37.84 392.3-37.23 393.19-36.62 393.19-35.57L393.19-35.57Q393.19-35.08 392.9-34.72L392.9-34.72Q392.34-35.13 391.58-35.13L391.58-35.13Q389.94-35.13 389.46-32.91L389.46-32.91 392.58-22.92Q393.17-21.04 395.51-20L395.51-20Q396.17-19.7 396.85-19.46L396.85-19.46Q394.41-18.65 394.41-17.04L394.41-17.04Q394.41-16.43 394.61-15.97L394.61-15.97 399.27-3.47Q400.34-2.34 401.44-2.34 402.54-2.34 403.15-2.76L403.15-2.76Q403.42-2.56 403.42-2.03 403.42-1.49 403.25-1.04 403.08-0.59 402.71-0.24L402.71-0.24Q401.93 0.49 400.42 0.49 398.9 0.49 397.78-0.34L397.78-0.34Q396.51 0.49 394.91 0.49 393.31 0.49 392.17-0.32L392.17-0.32Q391.07 0.49 389.58 0.49 388.09 0.49 387.11-0.13 386.14-0.76 386.09-1.9L386.09-1.9Q386.09-2.59 386.36-2.76L386.36-2.76Q387.01-2.34 387.7-2.34L387.7-2.34Q389.14-2.34 389.72-2.93L389.72-2.93 387.87-9.16 374.66-9.16 373.05-3.76Q374.05-2.22 375.48-2.22 376.91-2.22 377.61-2.64L377.61-2.64Q377.88-2.2 377.88-1.43 377.88-0.66 377.13-0.09 376.37 0.49 375.17 0.49 373.98 0.49 372.98-0.12L372.98-0.12Q372.1 0.49 370.96 0.49 369.83 0.49 369.02-0.17ZM375.64-12.45L386.87-12.45 381.2-31.27 375.64-12.45ZM390.26-10.03L391.53-6.47Q391.97-6.47 391.97-7.45L391.97-7.45Q391.97-9.16 391.46-10.77L391.46-10.77 390.53-13.62Q389.55-16.85 389.55-17.68L389.55-17.68Q389.53-19.04 390.75-19.48L390.75-19.48Q389.07-19.82 388.7-20.53L388.7-20.53Q388.53-20.83 388.42-21 388.31-21.17 388.2-21.4 388.09-21.63 387.94-22 387.8-22.36 387.55-23.05L387.55-23.05 386.04-27.61Q385.5-29.32 384.45-30.2L384.45-30.2Q384.13-30.47 383.86-30.52L383.86-30.52Q385.5-24.61 386.01-22.95L386.01-22.95Q389.55-12.06 390.26-10.03L390.26-10.03ZM398.78-4.13L398.73-4.27 398.78-4.13ZM415.5-0.29L415.5-0.29Q414.26 0.49 412.67 0.49 411.08 0.49 409.84-0.29L409.84-0.29Q408.59 0.49 407.53 0.49 406.47 0.49 405.79 0.31 405.1 0.12 404.59-0.2L404.59-0.2Q403.54-0.83 403.54-1.78L403.54-1.78Q403.54-2.27 403.81-2.64L403.81-2.64Q404.35-2.22 405.18-2.22L405.18-2.22Q407.35-2.22 408.18-4.08L408.18-4.08 408.18-16.02Q408.18-17.14 407.71-17.68L407.71-17.68Q406.98-18.58 405.2-19.46L405.2-19.46Q406.86-20.21 407.35-20.8L407.35-20.8Q408.18-21.75 408.18-22.95L408.18-22.95 408.18-33.25Q407.35-35.13 405.18-35.13L405.18-35.13Q404.35-35.13 403.81-34.72L403.81-34.72Q403.54-35.08 403.54-35.56 403.54-36.04 403.82-36.45 404.1-36.87 404.59-37.16L404.59-37.16Q405.71-37.84 407.17-37.84 408.62-37.84 409.84-37.04L409.84-37.04Q411.11-37.84 412.67-37.84 414.23-37.84 415.5-37.04L415.5-37.04Q418.26-38.09 421.62-38.09 424.98-38.09 427.25-37.48 429.52-36.87 431.15-35.74L431.15-35.74Q434.45-33.47 435.25-29.42L435.25-29.42Q435.57-27.61 437.57-26.68L437.57-26.68Q435.67-25.61 435.08-23.27L435.08-23.27Q433.89-18.43 429.1-17.24L429.1-17.24Q431.57-16.58 433.13-14.53L433.13-14.53Q434.74-12.4 434.74-9.52L434.74-9.52 434.74-7.08Q434.74-3.56 437.01-2.54L437.01-2.54Q437.7-2.22 438.5-2.22 439.31-2.22 439.84-2.64L439.84-2.64Q440.11-2.27 440.11-1.79 440.11-1.32 439.87-0.9 439.62-0.49 439.21-0.2L439.21-0.2Q438.33 0.49 437.16 0.49 435.99 0.49 434.86-0.15L434.86-0.15Q432.81 0.98 431.03 0.07L431.03 0.07Q430.35 0.49 429.59 0.49 428.83 0.49 428.14 0.15 427.44-0.2 426.9-0.98L426.9-0.98Q425.76-2.66 425.76-6.15L425.76-6.15 425.76-7.96Q425.76-13.6 422.53-15.28L422.53-15.28Q421.46-15.84 420.02-15.84L420.02-15.84 417.16-15.84 417.16-3.96Q417.82-2.22 419.68-2.22L419.68-2.22Q420.51-2.22 421.05-2.64L421.05-2.64Q421.31-2.27 421.31-1.56 421.31-0.85 420.54-0.18 419.78 0.49 418.24 0.49 416.7 0.49 415.5-0.29ZM421.85-34.84L421.85-34.84Q417.16-34.84 417.16-31.2L417.16-31.2 417.16-21.22Q417.16-19.95 418.16-19.51L418.16-19.51Q419.12-19.09 420.98-19.09 422.85-19.09 423.6-19.3 424.34-19.51 424.88-20.02L424.88-20.02Q425.98-21.07 425.98-23.54L425.98-23.54 425.98-30.66Q425.98-33.72 423.44-34.57L423.44-34.57Q422.68-34.84 421.85-34.84ZM427.61-33.28L427.61-33.28Q428.37-31.57 428.37-27.81L428.37-27.81Q428.37-21.34 427.76-20.07L427.76-20.07Q429.1-20.34 429.69-23.66L429.69-23.66 429.88-24.66Q430.15-26.25 431.45-26.68L431.45-26.68Q430.49-27 430.22-27.44L430.22-27.44Q429.93-27.95 429.7-29.19 429.47-30.42 429.22-31.18 428.98-31.93 428.71-32.37L428.71-32.37Q428.25-33.15 427.61-33.28ZM410.52-9.64L410.52-6.47Q411.74-6.93 411.87-9.67L411.87-9.67Q412.01-12.4 412.01-17.24 412.01-22.07 412-23.67 411.99-25.27 411.96-26.25L411.96-26.25Q411.89-29.13 411.41-29.72 410.94-30.32 410.52-30.52L410.52-30.52Q410.52-22.02 410.23-20.85L410.23-20.85Q409.89-19.87 408.57-19.46L408.57-19.46Q410.03-18.95 410.23-18.21L410.23-18.21Q410.52-17.04 410.52-9.64L410.52-9.64ZM427.37-13.16L427.37-13.16Q428.34-12.06 428.34-10.47L428.34-10.47 428.34-7.25Q428.34-3.2 429.96-2.93L429.96-2.93Q430.4-2.86 430.81-2.95L430.81-2.95Q429.93-4.32 429.93-5.83L429.93-5.83 429.93-9.25Q429.93-11.18 429.39-11.99L429.39-11.99Q428.47-13.35 427.37-13.16Z" fill="#4b91f1" data-fill-palette-color="secondary"></path></g></svg></g></svg></g></svg></g></svg></g><g><svg viewBox="0 0 48.14201172104359 48.14201172104359" height="48.14201172104359" width="48.14201172104359"><g><svg xmlns="http://www.w3.org/2000/svg" xmlns:xlink="http://www.w3.org/1999/xlink" version="1.1" x="0" y="0" viewBox="0 0 16 16" style="enable-background:new 0 0 16 16;" xml:space="preserve" height="48.14201172104359" width="48.14201172104359" class="icon-icon-0" data-fill-palette-color="accent" id="icon-0"><g fill="#1ebbd7" data-fill-palette-color="accent"><g fill="#1ebbd7" data-fill-palette-color="accent"><path d="M16 6h-1.294C14.034 3.743 12.257 1.966 10 1.294V0H6v1.294C3.743 1.966 1.966 3.743 1.294 6H0v4h1.294c0.672 2.257 2.45 4.034 4.706 4.706V16h4v-1.294c2.257-0.672 4.034-2.45 4.706-4.706H16V6zM10 12.576V12H6v0.576C4.851 12.072 3.928 11.149 3.424 10H4V6H3.424C3.928 4.851 4.851 3.928 6 3.424V4h4V3.424C11.149 3.928 12.072 4.851 12.576 6H12v4h0.576C12.072 11.149 11.149 12.072 10 12.576z" fill="#1ebbd7" data-fill-palette-color="accent"></path></g></g></svg></g></svg></g></svg></g><defs></defs></svg><rect width="395.52" height="41.103273585383256" fill="none" stroke="none" visibility="hidden"></rect></g></svg></g></svg>